<?xml version="1.0" encoding="UTF-8"?>
<svg width="512" height="512" viewBox="0 0 512 512" fill="none" xmlns="http://www.w3.org/2000/svg">
  <path d="M256 64C150 64 64 150 64 256C64 362 150 448 256 448C362 448 448 362 448 256C448 150 362 64 256 64Z" fill="#FFC107" stroke="#E65100" stroke-width="8"/>
  <path d="M256 120C203.07 120 160 163.07 160 216C160 268.93 203.07 312 256 312C308.93 312 352 268.93 352 216C352 163.07 308.93 120 256 120Z" fill="#E65100"/>
  <path d="M200 200C211.046 200 220 191.046 220 180C220 168.954 211.046 160 200 160C188.954 160 180 168.954 180 180C180 191.046 188.954 200 200 200Z" fill="white"/>
  <path d="M312 200C323.046 200 332 191.046 332 180C332 168.954 323.046 160 312 160C300.954 160 292 168.954 292 180C292 191.046 300.954 200 312 200Z" fill="white"/>
  <path d="M200 190C205.523 190 210 185.523 210 180C210 174.477 205.523 170 200 170C194.477 170 190 174.477 190 180C190 185.523 194.477 190 200 190Z" fill="black"/>
  <path d="M312 190C317.523 190 322 185.523 322 180C322 174.477 317.523 170 312 170C306.477 170 302 174.477 302 180C302 185.523 306.477 190 312 190Z" fill="black"/>
  <path d="M256 240C242.745 240 232 250.745 232 264C232 277.255 242.745 288 256 288C269.255 288 280 277.255 280 264C280 250.745 269.255 240 256 240Z" fill="white"/>
  <path d="M226 220C226 220 241 240 256 240C271 240 286 220 286 220" stroke="white" stroke-width="8" stroke-linecap="round"/>
  <path d="M160 160C160 160 120 120 100 160C80 200 120 240 120 240" stroke="#E65100" stroke-width="12" stroke-linecap="round"/>
  <path d="M352 160C352 160 392 120 412 160C432 200 392 240 392 240" stroke="#E65100" stroke-width="12" stroke-linecap="round"/>
  <path d="M256 312C256 312 216 352 216 392C216 432 256 432 256 432C256 432 296 432 296 392C296 352 256 312 256 312Z" fill="#E65100"/>
</svg> 